<svg width="250" height="46" viewBox="0 0 250 46" fill="none" xmlns="http://www.w3.org/2000/svg">
<rect width="250" height="46" rx="8" fill="#5932EA"/>
<path d="M26.0006 33.7498H20.0006C18.6806 33.7498 17.5806 33.6198 16.6506 33.3398C16.3106 33.2398 16.0906 32.9098 16.1106 32.5598C16.3606 29.5698 19.3906 27.2197 23.0006 27.2197C26.6106 27.2197 29.6306 29.5598 29.8906 32.5598C29.9206 32.9198 29.7006 33.2398 29.3506 33.3398C28.4206 33.6198 27.3206 33.7498 26.0006 33.7498ZM17.7206 32.0598C18.3806 32.1898 19.1306 32.2498 20.0006 32.2498H26.0006C26.8706 32.2498 27.6206 32.1898 28.2806 32.0598C27.7506 30.1398 25.5606 28.7197 23.0006 28.7197C20.4406 28.7197 18.2506 30.1398 17.7206 32.0598Z" fill="white"/>
<path d="M26 13H20C15 13 13 15 13 20V26C13 29.78 14.14 31.85 16.86 32.62C17.08 30.02 19.75 27.97 23 27.97C26.25 27.97 28.92 30.02 29.14 32.62C31.86 31.85 33 29.78 33 26V20C33 15 31 13 26 13ZM23 25.17C21.02 25.17 19.42 23.56 19.42 21.58C19.42 19.6 21.02 18 23 18C24.98 18 26.58 19.6 26.58 21.58C26.58 23.56 24.98 25.17 23 25.17Z" stroke="white" stroke-width="1.5" stroke-linecap="round" stroke-linejoin="round"/>
<path d="M22.9999 25.92C20.6099 25.92 18.6699 23.97 18.6699 21.58C18.6699 19.19 20.6099 17.25 22.9999 17.25C25.3899 17.25 27.3299 19.19 27.3299 21.58C27.3299 23.97 25.3899 25.92 22.9999 25.92ZM22.9999 18.75C21.4399 18.75 20.1699 20.02 20.1699 21.58C20.1699 23.15 21.4399 24.42 22.9999 24.42C24.5599 24.42 25.8299 23.15 25.8299 21.58C25.8299 20.02 24.5599 18.75 22.9999 18.75Z" fill="white"/>
<path d="M49.518 23.114C49.518 22.162 49.7373 21.308 50.176 20.552C50.624 19.796 51.226 19.208 51.982 18.788C52.7473 18.3587 53.5827 18.144 54.488 18.144C55.524 18.144 56.4433 18.4007 57.246 18.914C58.058 19.418 58.646 20.1367 59.01 21.07H57.092C56.84 20.5567 56.49 20.174 56.042 19.922C55.594 19.67 55.076 19.544 54.488 19.544C53.844 19.544 53.27 19.6887 52.766 19.978C52.262 20.2673 51.8653 20.6827 51.576 21.224C51.296 21.7653 51.156 22.3953 51.156 23.114C51.156 23.8327 51.296 24.4627 51.576 25.004C51.8653 25.5453 52.262 25.9653 52.766 26.264C53.27 26.5533 53.844 26.698 54.488 26.698C55.076 26.698 55.594 26.572 56.042 26.32C56.49 26.068 56.84 25.6853 57.092 25.172H59.01C58.646 26.1053 58.058 26.824 57.246 27.328C56.4433 27.832 55.524 28.084 54.488 28.084C53.5733 28.084 52.738 27.874 51.982 27.454C51.226 27.0247 50.624 26.432 50.176 25.676C49.7373 24.92 49.518 24.066 49.518 23.114ZM67.7241 20.286V28H66.1281V27.09C65.8761 27.4073 65.5448 27.6593 65.1341 27.846C64.7328 28.0233 64.3035 28.112 63.8461 28.112C63.2395 28.112 62.6935 27.986 62.2081 27.734C61.7321 27.482 61.3541 27.1087 61.0741 26.614C60.8035 26.1193 60.6681 25.522 60.6681 24.822V20.286H62.2501V24.584C62.2501 25.2747 62.4228 25.8067 62.7681 26.18C63.1135 26.544 63.5848 26.726 64.1821 26.726C64.7795 26.726 65.2508 26.544 65.5961 26.18C65.9508 25.8067 66.1281 25.2747 66.1281 24.584V20.286H67.7241ZM72.4899 28.126C71.8833 28.126 71.3373 28.0187 70.8519 27.804C70.3759 27.58 69.9979 27.2813 69.7179 26.908C69.4379 26.5253 69.2886 26.1007 69.2699 25.634H70.9219C70.9499 25.9607 71.1039 26.236 71.3839 26.46C71.6733 26.6747 72.0326 26.782 72.4619 26.782C72.9099 26.782 73.2553 26.698 73.4979 26.53C73.7499 26.3527 73.8759 26.1287 73.8759 25.858C73.8759 25.5687 73.7359 25.354 73.4559 25.214C73.1853 25.074 72.7513 24.92 72.1539 24.752C71.5753 24.5933 71.1039 24.4393 70.7399 24.29C70.3759 24.1407 70.0586 23.912 69.7879 23.604C69.5266 23.296 69.3959 22.89 69.3959 22.386C69.3959 21.9753 69.5173 21.602 69.7599 21.266C70.0026 20.9207 70.3479 20.65 70.7959 20.454C71.2533 20.258 71.7759 20.16 72.3639 20.16C73.2413 20.16 73.9459 20.384 74.4779 20.832C75.0193 21.2707 75.3086 21.8727 75.3459 22.638H73.7499C73.7219 22.2927 73.5819 22.0173 73.3299 21.812C73.0779 21.6067 72.7373 21.504 72.3079 21.504C71.8879 21.504 71.5659 21.5833 71.3419 21.742C71.1179 21.9007 71.0059 22.1107 71.0059 22.372C71.0059 22.5773 71.0806 22.75 71.2299 22.89C71.3793 23.03 71.5613 23.142 71.7759 23.226C71.9906 23.3007 72.3079 23.3987 72.7279 23.52C73.2879 23.6693 73.7453 23.8233 74.0999 23.982C74.4639 24.1313 74.7766 24.3553 75.0379 24.654C75.2993 24.9527 75.4346 25.3493 75.4439 25.844C75.4439 26.2827 75.3226 26.6747 75.0799 27.02C74.8373 27.3653 74.4919 27.636 74.0439 27.832C73.6053 28.028 73.0873 28.126 72.4899 28.126ZM78.8904 21.588V25.858C78.8904 26.1473 78.9558 26.3573 79.0864 26.488C79.2264 26.6093 79.4598 26.67 79.7864 26.67H80.7664V28H79.5064C78.7878 28 78.2371 27.832 77.8544 27.496C77.4718 27.16 77.2804 26.614 77.2804 25.858V21.588H76.3704V20.286H77.2804V18.368H78.8904V20.286H80.7664V21.588H78.8904ZM85.4434 28.126C84.7154 28.126 84.0574 27.9627 83.4694 27.636C82.8814 27.3 82.4194 26.8333 82.0834 26.236C81.7474 25.6293 81.5794 24.9293 81.5794 24.136C81.5794 23.352 81.7521 22.6567 82.0974 22.05C82.4428 21.4433 82.9141 20.9767 83.5114 20.65C84.1088 20.3233 84.7761 20.16 85.5134 20.16C86.2508 20.16 86.9181 20.3233 87.5154 20.65C88.1128 20.9767 88.5841 21.4433 88.9294 22.05C89.2748 22.6567 89.4474 23.352 89.4474 24.136C89.4474 24.92 89.2701 25.6153 88.9154 26.222C88.5608 26.8287 88.0754 27.3 87.4594 27.636C86.8528 27.9627 86.1808 28.126 85.4434 28.126ZM85.4434 26.74C85.8541 26.74 86.2368 26.642 86.5914 26.446C86.9554 26.25 87.2494 25.956 87.4734 25.564C87.6974 25.172 87.8094 24.696 87.8094 24.136C87.8094 23.576 87.7021 23.1047 87.4874 22.722C87.2728 22.33 86.9881 22.036 86.6334 21.84C86.2788 21.644 85.8961 21.546 85.4854 21.546C85.0748 21.546 84.6921 21.644 84.3374 21.84C83.9921 22.036 83.7168 22.33 83.5114 22.722C83.3061 23.1047 83.2034 23.576 83.2034 24.136C83.2034 24.9667 83.4134 25.6107 83.8334 26.068C84.2628 26.516 84.7994 26.74 85.4434 26.74ZM100.223 20.16C100.83 20.16 101.371 20.286 101.847 20.538C102.332 20.79 102.71 21.1633 102.981 21.658C103.261 22.1527 103.401 22.75 103.401 23.45V28H101.819V23.688C101.819 22.9973 101.646 22.47 101.301 22.106C100.956 21.7327 100.484 21.546 99.8872 21.546C99.2898 21.546 98.8138 21.7327 98.4592 22.106C98.1138 22.47 97.9412 22.9973 97.9412 23.688V28H96.3592V23.688C96.3592 22.9973 96.1865 22.47 95.8412 22.106C95.4958 21.7327 95.0245 21.546 94.4272 21.546C93.8298 21.546 93.3538 21.7327 92.9992 22.106C92.6538 22.47 92.4812 22.9973 92.4812 23.688V28H90.8852V20.286H92.4812V21.168C92.7425 20.8507 93.0738 20.6033 93.4752 20.426C93.8765 20.2487 94.3058 20.16 94.7632 20.16C95.3792 20.16 95.9298 20.2907 96.4152 20.552C96.9005 20.8133 97.2738 21.1913 97.5352 21.686C97.7685 21.2193 98.1325 20.8507 98.6272 20.58C99.1218 20.3 99.6538 20.16 100.223 20.16ZM112.362 23.954C112.362 24.2433 112.343 24.5047 112.306 24.738H106.412C106.459 25.354 106.687 25.8487 107.098 26.222C107.509 26.5953 108.013 26.782 108.61 26.782C109.469 26.782 110.075 26.4227 110.43 25.704H112.152C111.919 26.4133 111.494 26.9967 110.878 27.454C110.271 27.902 109.515 28.126 108.61 28.126C107.873 28.126 107.21 27.9627 106.622 27.636C106.043 27.3 105.586 26.8333 105.25 26.236C104.923 25.6293 104.76 24.9293 104.76 24.136C104.76 23.3427 104.919 22.6473 105.236 22.05C105.563 21.4433 106.015 20.9767 106.594 20.65C107.182 20.3233 107.854 20.16 108.61 20.16C109.338 20.16 109.987 20.3187 110.556 20.636C111.125 20.9533 111.569 21.4013 111.886 21.98C112.203 22.5493 112.362 23.2073 112.362 23.954ZM110.696 23.45C110.687 22.862 110.477 22.3907 110.066 22.036C109.655 21.6813 109.147 21.504 108.54 21.504C107.989 21.504 107.518 21.6813 107.126 22.036C106.734 22.3813 106.501 22.8527 106.426 23.45H110.696ZM115.389 21.406C115.622 21.014 115.93 20.7107 116.313 20.496C116.705 20.272 117.167 20.16 117.699 20.16V21.812H117.293C116.667 21.812 116.191 21.9707 115.865 22.288C115.547 22.6053 115.389 23.156 115.389 23.94V28H113.793V20.286H115.389V21.406ZM121.826 28.126C121.219 28.126 120.673 28.0187 120.188 27.804C119.712 27.58 119.334 27.2813 119.054 26.908C118.774 26.5253 118.624 26.1007 118.606 25.634H120.258C120.286 25.9607 120.44 26.236 120.72 26.46C121.009 26.6747 121.368 26.782 121.798 26.782C122.246 26.782 122.591 26.698 122.834 26.53C123.086 26.3527 123.212 26.1287 123.212 25.858C123.212 25.5687 123.072 25.354 122.792 25.214C122.521 25.074 122.087 24.92 121.49 24.752C120.911 24.5933 120.44 24.4393 120.076 24.29C119.712 24.1407 119.394 23.912 119.124 23.604C118.862 23.296 118.732 22.89 118.732 22.386C118.732 21.9753 118.853 21.602 119.096 21.266C119.338 20.9207 119.684 20.65 120.132 20.454C120.589 20.258 121.112 20.16 121.7 20.16C122.577 20.16 123.282 20.384 123.814 20.832C124.355 21.2707 124.644 21.8727 124.682 22.638H123.086C123.058 22.2927 122.918 22.0173 122.666 21.812C122.414 21.6067 122.073 21.504 121.644 21.504C121.224 21.504 120.902 21.5833 120.678 21.742C120.454 21.9007 120.342 22.1107 120.342 22.372C120.342 22.5773 120.416 22.75 120.566 22.89C120.715 23.03 120.897 23.142 121.112 23.226C121.326 23.3007 121.644 23.3987 122.064 23.52C122.624 23.6693 123.081 23.8233 123.436 23.982C123.8 24.1313 124.112 24.3553 124.374 24.654C124.635 24.9527 124.77 25.3493 124.78 25.844C124.78 26.2827 124.658 26.6747 124.416 27.02C124.173 27.3653 123.828 27.636 123.38 27.832C122.941 28.028 122.423 28.126 121.826 28.126Z" fill="white"/>
<path d="M232 27L236 23L232 19" stroke="white" stroke-width="2" stroke-linecap="round" stroke-linejoin="round"/>
</svg>
