<svg width="116" height="24" viewBox="0 0 116 24" fill="none" xmlns="http://www.w3.org/2000/svg">
<path d="M9 22H15C20 22 22 20 22 15V9C22 4 20 2 15 2H9C4 2 2 4 2 9V15C2 20 4 22 9 22Z" stroke="#9197B3" stroke-width="1.5" stroke-linecap="round" stroke-linejoin="round"/>
<path d="M16.28 13.61C15.15 14.74 13.53 15.09 12.1 14.64L9.51001 17.22C9.33001 17.41 8.96001 17.53 8.69001 17.49L7.49001 17.33C7.09001 17.28 6.73001 16.9 6.67001 16.51L6.51001 15.31C6.47001 15.05 6.60001 14.68 6.78001 14.49L9.36001 11.91C8.92001 10.48 9.26001 8.86001 10.39 7.73001C12.01 6.11001 14.65 6.11001 16.28 7.73001C17.9 9.34001 17.9 11.98 16.28 13.61Z" stroke="#9197B3" stroke-width="1.5" stroke-miterlimit="10" stroke-linecap="round" stroke-linejoin="round"/>
<path d="M10.45 16.28L9.59998 15.42" stroke="#9197B3" stroke-width="1.5" stroke-miterlimit="10" stroke-linecap="round" stroke-linejoin="round"/>
<path d="M13.3945 10.7H13.4035" stroke="#9197B3" stroke-width="2" stroke-linecap="round" stroke-linejoin="round"/>
<path d="M42.228 6.27C43.264 6.27 44.1693 6.47067 44.944 6.872C45.728 7.264 46.33 7.83333 46.75 8.58C47.1793 9.31733 47.394 10.1807 47.394 11.17C47.394 12.1593 47.1793 13.018 46.75 13.746C46.33 14.474 45.728 15.034 44.944 15.426C44.1693 15.8087 43.264 16 42.228 16H39.05V6.27H42.228ZM42.228 14.698C43.3667 14.698 44.2393 14.39 44.846 13.774C45.4527 13.158 45.756 12.29 45.756 11.17C45.756 10.0407 45.4527 9.15867 44.846 8.524C44.2393 7.88933 43.3667 7.572 42.228 7.572H40.646V14.698H42.228ZM48.3038 12.108C48.3038 11.3333 48.4624 10.6473 48.7798 10.05C49.1064 9.45267 49.5451 8.99067 50.0958 8.664C50.6558 8.328 51.2718 8.16 51.9438 8.16C52.5504 8.16 53.0778 8.28133 53.5258 8.524C53.9831 8.75733 54.3471 9.05133 54.6178 9.406V8.286H56.2278V16H54.6178V14.852C54.3471 15.216 53.9784 15.5193 53.5118 15.762C53.0451 16.0047 52.5131 16.126 51.9158 16.126C51.2531 16.126 50.6464 15.958 50.0958 15.622C49.5451 15.2767 49.1064 14.8007 48.7798 14.194C48.4624 13.578 48.3038 12.8827 48.3038 12.108ZM54.6178 12.136C54.6178 11.604 54.5058 11.142 54.2818 10.75C54.0671 10.358 53.7824 10.0593 53.4278 9.854C53.0731 9.64867 52.6904 9.546 52.2798 9.546C51.8691 9.546 51.4864 9.64867 51.1318 9.854C50.7771 10.05 50.4878 10.344 50.2638 10.736C50.0491 11.1187 49.9418 11.576 49.9418 12.108C49.9418 12.64 50.0491 13.1067 50.2638 13.508C50.4878 13.9093 50.7771 14.2173 51.1318 14.432C51.4958 14.6373 51.8784 14.74 52.2798 14.74C52.6904 14.74 53.0731 14.6373 53.4278 14.432C53.7824 14.2267 54.0671 13.928 54.2818 13.536C54.5058 13.1347 54.6178 12.668 54.6178 12.136ZM60.9841 16.126C60.3774 16.126 59.8314 16.0187 59.3461 15.804C58.8701 15.58 58.4921 15.2813 58.2121 14.908C57.9321 14.5253 57.7827 14.1007 57.7641 13.634H59.4161C59.4441 13.9607 59.5981 14.236 59.8781 14.46C60.1674 14.6747 60.5267 14.782 60.9561 14.782C61.4041 14.782 61.7494 14.698 61.9921 14.53C62.2441 14.3527 62.3701 14.1287 62.3701 13.858C62.3701 13.5687 62.2301 13.354 61.9501 13.214C61.6794 13.074 61.2454 12.92 60.6481 12.752C60.0694 12.5933 59.5981 12.4393 59.2341 12.29C58.8701 12.1407 58.5527 11.912 58.2821 11.604C58.0207 11.296 57.8901 10.89 57.8901 10.386C57.8901 9.97533 58.0114 9.602 58.2541 9.266C58.4967 8.92067 58.8421 8.65 59.2901 8.454C59.7474 8.258 60.2701 8.16 60.8581 8.16C61.7354 8.16 62.4401 8.384 62.9721 8.832C63.5134 9.27067 63.8027 9.87267 63.8401 10.638H62.2441C62.2161 10.2927 62.0761 10.0173 61.8241 9.812C61.5721 9.60667 61.2314 9.504 60.8021 9.504C60.3821 9.504 60.0601 9.58333 59.8361 9.742C59.6121 9.90067 59.5001 10.1107 59.5001 10.372C59.5001 10.5773 59.5747 10.75 59.7241 10.89C59.8734 11.03 60.0554 11.142 60.2701 11.226C60.4847 11.3007 60.8021 11.3987 61.2221 11.52C61.7821 11.6693 62.2394 11.8233 62.5941 11.982C62.9581 12.1313 63.2707 12.3553 63.5321 12.654C63.7934 12.9527 63.9287 13.3493 63.9381 13.844C63.9381 14.2827 63.8167 14.6747 63.5741 15.02C63.3314 15.3653 62.9861 15.636 62.5381 15.832C62.0994 16.028 61.5814 16.126 60.9841 16.126ZM69.5126 8.16C70.1006 8.16 70.6232 8.286 71.0806 8.538C71.5472 8.79 71.9112 9.16333 72.1726 9.658C72.4432 10.1527 72.5786 10.75 72.5786 11.45V16H70.9966V11.688C70.9966 10.9973 70.8239 10.47 70.4786 10.106C70.1332 9.73267 69.6619 9.546 69.0646 9.546C68.4672 9.546 67.9912 9.73267 67.6366 10.106C67.2912 10.47 67.1186 10.9973 67.1186 11.688V16H65.5226V5.64H67.1186V9.182C67.3892 8.85533 67.7299 8.60333 68.1406 8.426C68.5606 8.24867 69.0179 8.16 69.5126 8.16ZM76.0704 9.434C76.341 9.06067 76.7097 8.75733 77.1764 8.524C77.6524 8.28133 78.1797 8.16 78.7584 8.16C79.4397 8.16 80.0557 8.32333 80.6064 8.65C81.157 8.97667 81.591 9.44333 81.9084 10.05C82.2257 10.6473 82.3844 11.3333 82.3844 12.108C82.3844 12.8827 82.2257 13.578 81.9084 14.194C81.591 14.8007 81.1524 15.2767 80.5924 15.622C80.0417 15.958 79.4304 16.126 78.7584 16.126C78.161 16.126 77.629 16.0093 77.1624 15.776C76.705 15.5427 76.341 15.244 76.0704 14.88V16H74.4744V5.64H76.0704V9.434ZM80.7604 12.108C80.7604 11.576 80.6484 11.1187 80.4244 10.736C80.2097 10.344 79.9204 10.05 79.5564 9.854C79.2017 9.64867 78.819 9.546 78.4084 9.546C78.007 9.546 77.6244 9.64867 77.2604 9.854C76.9057 10.0593 76.6164 10.358 76.3924 10.75C76.1777 11.142 76.0704 11.604 76.0704 12.136C76.0704 12.668 76.1777 13.1347 76.3924 13.536C76.6164 13.928 76.9057 14.2267 77.2604 14.432C77.6244 14.6373 78.007 14.74 78.4084 14.74C78.819 14.74 79.2017 14.6373 79.5564 14.432C79.9204 14.2173 80.2097 13.9093 80.4244 13.508C80.6484 13.1067 80.7604 12.64 80.7604 12.108ZM87.1687 16.126C86.4407 16.126 85.7827 15.9627 85.1947 15.636C84.6067 15.3 84.1447 14.8333 83.8087 14.236C83.4727 13.6293 83.3047 12.9293 83.3047 12.136C83.3047 11.352 83.4773 10.6567 83.8227 10.05C84.168 9.44333 84.6393 8.97667 85.2367 8.65C85.834 8.32333 86.5013 8.16 87.2387 8.16C87.976 8.16 88.6433 8.32333 89.2407 8.65C89.838 8.97667 90.3093 9.44333 90.6547 10.05C91 10.6567 91.1727 11.352 91.1727 12.136C91.1727 12.92 90.9953 13.6153 90.6407 14.222C90.286 14.8287 89.8007 15.3 89.1847 15.636C88.578 15.9627 87.906 16.126 87.1687 16.126ZM87.1687 14.74C87.5793 14.74 87.962 14.642 88.3167 14.446C88.6807 14.25 88.9747 13.956 89.1987 13.564C89.4227 13.172 89.5347 12.696 89.5347 12.136C89.5347 11.576 89.4273 11.1047 89.2127 10.722C88.998 10.33 88.7133 10.036 88.3587 9.84C88.004 9.644 87.6213 9.546 87.2107 9.546C86.8 9.546 86.4173 9.644 86.0627 9.84C85.7173 10.036 85.442 10.33 85.2367 10.722C85.0313 11.1047 84.9287 11.576 84.9287 12.136C84.9287 12.9667 85.1387 13.6107 85.5587 14.068C85.988 14.516 86.5247 14.74 87.1687 14.74ZM92.0784 12.108C92.0784 11.3333 92.2371 10.6473 92.5544 10.05C92.8811 9.45267 93.3197 8.99067 93.8704 8.664C94.4304 8.328 95.0464 8.16 95.7184 8.16C96.3251 8.16 96.8524 8.28133 97.3004 8.524C97.7577 8.75733 98.1217 9.05133 98.3924 9.406V8.286H100.002V16H98.3924V14.852C98.1217 15.216 97.7531 15.5193 97.2864 15.762C96.8197 16.0047 96.2877 16.126 95.6904 16.126C95.0277 16.126 94.4211 15.958 93.8704 15.622C93.3197 15.2767 92.8811 14.8007 92.5544 14.194C92.2371 13.578 92.0784 12.8827 92.0784 12.108ZM98.3924 12.136C98.3924 11.604 98.2804 11.142 98.0564 10.75C97.8417 10.358 97.5571 10.0593 97.2024 9.854C96.8477 9.64867 96.4651 9.546 96.0544 9.546C95.6437 9.546 95.2611 9.64867 94.9064 9.854C94.5517 10.05 94.2624 10.344 94.0384 10.736C93.8237 11.1187 93.7164 11.576 93.7164 12.108C93.7164 12.64 93.8237 13.1067 94.0384 13.508C94.2624 13.9093 94.5517 14.2173 94.9064 14.432C95.2704 14.6373 95.6531 14.74 96.0544 14.74C96.4651 14.74 96.8477 14.6373 97.2024 14.432C97.5571 14.2267 97.8417 13.928 98.0564 13.536C98.2804 13.1347 98.3924 12.668 98.3924 12.136ZM103.555 9.406C103.788 9.014 104.096 8.71067 104.479 8.496C104.871 8.272 105.333 8.16 105.865 8.16V9.812H105.459C104.833 9.812 104.357 9.97067 104.031 10.288C103.713 10.6053 103.555 11.156 103.555 11.94V16H101.959V8.286H103.555V9.406ZM106.66 12.108C106.66 11.3333 106.818 10.6473 107.136 10.05C107.462 9.45267 107.901 8.99067 108.452 8.664C109.012 8.328 109.632 8.16 110.314 8.16C110.818 8.16 111.312 8.272 111.798 8.496C112.292 8.71067 112.684 9 112.974 9.364V5.64H114.584V16H112.974V14.838C112.712 15.2113 112.348 15.5193 111.882 15.762C111.424 16.0047 110.897 16.126 110.3 16.126C109.628 16.126 109.012 15.958 108.452 15.622C107.901 15.2767 107.462 14.8007 107.136 14.194C106.818 13.578 106.66 12.8827 106.66 12.108ZM112.974 12.136C112.974 11.604 112.862 11.142 112.638 10.75C112.423 10.358 112.138 10.0593 111.784 9.854C111.429 9.64867 111.046 9.546 110.636 9.546C110.225 9.546 109.842 9.64867 109.488 9.854C109.133 10.05 108.844 10.344 108.62 10.736C108.405 11.1187 108.298 11.576 108.298 12.108C108.298 12.64 108.405 13.1067 108.62 13.508C108.844 13.9093 109.133 14.2173 109.488 14.432C109.852 14.6373 110.234 14.74 110.636 14.74C111.046 14.74 111.429 14.6373 111.784 14.432C112.138 14.2267 112.423 13.928 112.638 13.536C112.862 13.1347 112.974 12.668 112.974 12.136Z" fill="#9197B3"/>
</svg>
