<svg width="231" height="24" viewBox="0 0 231 24" fill="none" xmlns="http://www.w3.org/2000/svg">
<path d="M15 22.75H9C3.57 22.75 1.25 20.43 1.25 15V9C1.25 3.57 3.57 1.25 9 1.25H15C20.43 1.25 22.75 3.57 22.75 9V15C22.75 20.43 20.43 22.75 15 22.75ZM9 2.75C4.39 2.75 2.75 4.39 2.75 9V15C2.75 19.61 4.39 21.25 9 21.25H15C19.61 21.25 21.25 19.61 21.25 15V9C21.25 4.39 19.61 2.75 15 2.75H9Z" fill="#9197B3"/>
<path d="M12.0006 13.0797C11.8706 13.0797 11.7406 13.0497 11.6206 12.9797L6.32061 9.9197C5.96061 9.7097 5.84059 9.2497 6.05059 8.8997C6.26059 8.5397 6.72061 8.4197 7.07061 8.6297L11.9906 11.4797L16.8806 8.6497C17.2406 8.4397 17.7006 8.5697 17.9006 8.9197C18.1006 9.2697 17.9806 9.7397 17.6306 9.9397L12.3706 12.9797C12.2606 13.0397 12.1306 13.0797 12.0006 13.0797Z" fill="#9197B3"/>
<path d="M12 18.5201C11.59 18.5201 11.25 18.1801 11.25 17.7701V12.3301C11.25 11.9201 11.59 11.5801 12 11.5801C12.41 11.5801 12.75 11.9201 12.75 12.3301V17.7701C12.75 18.1801 12.41 18.5201 12 18.5201Z" fill="#9197B3"/>
<path d="M12.0002 18.7498C11.4202 18.7498 10.8503 18.6198 10.3903 18.3698L7.19025 16.5898C6.23025 16.0598 5.49023 14.7898 5.49023 13.6898V10.2998C5.49023 9.20981 6.24025 7.9398 7.19025 7.3998L10.3903 5.6198C11.3103 5.1098 12.6902 5.1098 13.6102 5.6198L16.8102 7.3998C17.7702 7.9298 18.5103 9.19981 18.5103 10.2998V13.6898C18.5103 14.7798 17.7602 16.0498 16.8102 16.5898L13.6102 18.3698C13.1502 18.6298 12.5802 18.7498 12.0002 18.7498ZM12.0002 6.7498C11.6702 6.7498 11.3502 6.8098 11.1202 6.9398L7.92026 8.7198C7.43026 8.9898 6.99023 9.7498 6.99023 10.2998V13.6898C6.99023 14.2498 7.43026 14.9998 7.92026 15.2698L11.1202 17.0498C11.5802 17.3098 12.4202 17.3098 12.8802 17.0498L16.0802 15.2698C16.5702 14.9998 17.0103 14.2398 17.0103 13.6898V10.2998C17.0103 9.73981 16.5702 8.9898 16.0802 8.7198L12.8802 6.9398C12.6502 6.8098 12.3302 6.7498 12.0002 6.7498Z" fill="#9197B3"/>
<path d="M45.854 10.168C45.854 10.6627 45.7373 11.1293 45.504 11.568C45.2707 12.0067 44.8973 12.366 44.384 12.646C43.8707 12.9167 43.2127 13.052 42.41 13.052H40.646V17H39.05V7.27H42.41C43.1567 7.27 43.7867 7.40067 44.3 7.662C44.8227 7.914 45.21 8.25933 45.462 8.698C45.7233 9.13667 45.854 9.62667 45.854 10.168ZM42.41 11.75C43.0167 11.75 43.4693 11.6147 43.768 11.344C44.0667 11.064 44.216 10.672 44.216 10.168C44.216 9.104 43.614 8.572 42.41 8.572H40.646V11.75H42.41ZM48.8322 10.406C49.0655 10.014 49.3735 9.71067 49.7562 9.496C50.1482 9.272 50.6102 9.16 51.1422 9.16V10.812H50.7362C50.1108 10.812 49.6348 10.9707 49.3082 11.288C48.9908 11.6053 48.8322 12.156 48.8322 12.94V17H47.2362V9.286H48.8322V10.406ZM55.8152 17.126C55.0872 17.126 54.4292 16.9627 53.8412 16.636C53.2532 16.3 52.7912 15.8333 52.4552 15.236C52.1192 14.6293 51.9512 13.9293 51.9512 13.136C51.9512 12.352 52.1239 11.6567 52.4692 11.05C52.8146 10.4433 53.2859 9.97667 53.8832 9.65C54.4806 9.32333 55.1479 9.16 55.8852 9.16C56.6226 9.16 57.2899 9.32333 57.8872 9.65C58.4846 9.97667 58.9559 10.4433 59.3012 11.05C59.6466 11.6567 59.8192 12.352 59.8192 13.136C59.8192 13.92 59.6419 14.6153 59.2872 15.222C58.9326 15.8287 58.4472 16.3 57.8312 16.636C57.2246 16.9627 56.5526 17.126 55.8152 17.126ZM55.8152 15.74C56.2259 15.74 56.6086 15.642 56.9632 15.446C57.3272 15.25 57.6212 14.956 57.8452 14.564C58.0692 14.172 58.1812 13.696 58.1812 13.136C58.1812 12.576 58.0739 12.1047 57.8592 11.722C57.6446 11.33 57.3599 11.036 57.0052 10.84C56.6506 10.644 56.2679 10.546 55.8572 10.546C55.4466 10.546 55.0639 10.644 54.7092 10.84C54.3639 11.036 54.0886 11.33 53.8832 11.722C53.6779 12.1047 53.5752 12.576 53.5752 13.136C53.5752 13.9667 53.7852 14.6107 54.2052 15.068C54.6346 15.516 55.1712 15.74 55.8152 15.74ZM60.725 13.108C60.725 12.3333 60.8836 11.6473 61.201 11.05C61.5276 10.4527 61.9663 9.99067 62.517 9.664C63.077 9.328 63.6976 9.16 64.379 9.16C64.883 9.16 65.3776 9.272 65.863 9.496C66.3576 9.71067 66.7496 10 67.039 10.364V6.64H68.649V17H67.039V15.838C66.7776 16.2113 66.4136 16.5193 65.947 16.762C65.4896 17.0047 64.9623 17.126 64.365 17.126C63.693 17.126 63.077 16.958 62.517 16.622C61.9663 16.2767 61.5276 15.8007 61.201 15.194C60.8836 14.578 60.725 13.8827 60.725 13.108ZM67.039 13.136C67.039 12.604 66.927 12.142 66.703 11.75C66.4883 11.358 66.2036 11.0593 65.849 10.854C65.4943 10.6487 65.1116 10.546 64.701 10.546C64.2903 10.546 63.9076 10.6487 63.553 10.854C63.1983 11.05 62.909 11.344 62.685 11.736C62.4703 12.1187 62.363 12.576 62.363 13.108C62.363 13.64 62.4703 14.1067 62.685 14.508C62.909 14.9093 63.1983 15.2173 63.553 15.432C63.917 15.6373 64.2996 15.74 64.701 15.74C65.1116 15.74 65.4943 15.6373 65.849 15.432C66.2036 15.2267 66.4883 14.928 66.703 14.536C66.927 14.1347 67.039 13.668 67.039 13.136ZM77.5912 9.286V17H75.9952V16.09C75.7432 16.4073 75.4119 16.6593 75.0012 16.846C74.5999 17.0233 74.1706 17.112 73.7132 17.112C73.1066 17.112 72.5606 16.986 72.0752 16.734C71.5992 16.482 71.2212 16.1087 70.9412 15.614C70.6706 15.1193 70.5352 14.522 70.5352 13.822V9.286H72.1172V13.584C72.1172 14.2747 72.2899 14.8067 72.6352 15.18C72.9806 15.544 73.4519 15.726 74.0492 15.726C74.6466 15.726 75.1179 15.544 75.4632 15.18C75.8179 14.8067 75.9952 14.2747 75.9952 13.584V9.286H77.5912ZM79.025 13.136C79.025 12.3427 79.1837 11.6473 79.501 11.05C79.8277 10.4433 80.2757 9.97667 80.845 9.65C81.4144 9.32333 82.0677 9.16 82.805 9.16C83.7384 9.16 84.5084 9.384 85.115 9.832C85.731 10.2707 86.1464 10.9007 86.361 11.722H84.639C84.499 11.3393 84.275 11.0407 83.967 10.826C83.659 10.6113 83.2717 10.504 82.805 10.504C82.1517 10.504 81.629 10.7373 81.237 11.204C80.8544 11.6613 80.663 12.3053 80.663 13.136C80.663 13.9667 80.8544 14.6153 81.237 15.082C81.629 15.5487 82.1517 15.782 82.805 15.782C83.729 15.782 84.3404 15.376 84.639 14.564H86.361C86.137 15.348 85.717 15.9733 85.101 16.44C84.485 16.8973 83.7197 17.126 82.805 17.126C82.0677 17.126 81.4144 16.9627 80.845 16.636C80.2757 16.3 79.8277 15.8333 79.501 15.236C79.1837 14.6293 79.025 13.9293 79.025 13.136ZM89.6736 10.588V14.858C89.6736 15.1473 89.7389 15.3573 89.8696 15.488C90.0096 15.6093 90.2429 15.67 90.5696 15.67H91.5496V17H90.2896C89.5709 17 89.0202 16.832 88.6376 16.496C88.2549 16.16 88.0636 15.614 88.0636 14.858V10.588H87.1536V9.286H88.0636V7.368H89.6736V9.286H91.5496V10.588H89.6736Z" fill="#9197B3"/>
<path d="M221 16L225 12L221 8" stroke="#9197B3" stroke-width="2" stroke-linecap="round" stroke-linejoin="round"/>
</svg>
