<svg width="231" height="24" viewBox="0 0 231 24" fill="none" xmlns="http://www.w3.org/2000/svg">
<path d="M10.7516 16.8604V18.8904C10.7516 20.6104 9.15158 22.0004 7.18158 22.0004C5.21158 22.0004 3.60156 20.6104 3.60156 18.8904V16.8604C3.60156 18.5804 5.20158 19.8004 7.18158 19.8004C9.15158 19.8004 10.7516 18.5704 10.7516 16.8604Z" stroke="#9197B3" stroke-width="1.5" stroke-linecap="round" stroke-linejoin="round"/>
<path d="M10.7501 14.11C10.7501 14.61 10.6101 15.07 10.3701 15.47C9.78006 16.44 8.57004 17.05 7.17004 17.05C5.77004 17.05 4.56003 16.43 3.97003 15.47C3.73003 15.07 3.59009 14.61 3.59009 14.11C3.59009 13.25 3.99007 12.48 4.63007 11.92C5.28007 11.35 6.17003 11.01 7.16003 11.01C8.15003 11.01 9.04006 11.36 9.69006 11.92C10.3501 12.47 10.7501 13.25 10.7501 14.11Z" stroke="#9197B3" stroke-width="1.5" stroke-linecap="round" stroke-linejoin="round"/>
<path d="M10.7516 14.11V16.86C10.7516 18.58 9.15158 19.8 7.18158 19.8C5.21158 19.8 3.60156 18.57 3.60156 16.86V14.11C3.60156 12.39 5.20158 11 7.18158 11C8.17158 11 9.06161 11.35 9.71161 11.91C10.3516 12.47 10.7516 13.25 10.7516 14.11Z" stroke="#9197B3" stroke-width="1.5" stroke-linecap="round" stroke-linejoin="round"/>
<path d="M22 10.9699V13.03C22 13.58 21.56 14.0299 21 14.0499H19.0399C17.9599 14.0499 16.97 13.2599 16.88 12.1799C16.82 11.5499 17.0599 10.9599 17.4799 10.5499C17.8499 10.1699 18.36 9.94995 18.92 9.94995H21C21.56 9.96995 22 10.4199 22 10.9699Z" stroke="#9197B3" stroke-width="1.5" stroke-linecap="round" stroke-linejoin="round"/>
<path d="M2 10.5V8.5C2 5.78 3.64 3.88 6.19 3.56C6.45 3.52 6.72 3.5 7 3.5H16C16.26 3.5 16.51 3.50999 16.75 3.54999C19.33 3.84999 21 5.76 21 8.5V9.95001H18.92C18.36 9.95001 17.85 10.17 17.48 10.55C17.06 10.96 16.82 11.55 16.88 12.18C16.97 13.26 17.96 14.05 19.04 14.05H21V15.5C21 18.5 19 20.5 16 20.5H13.5" stroke="#9197B3" stroke-width="1.5" stroke-linecap="round" stroke-linejoin="round"/>
<path d="M40.646 7.27V17H39.05V7.27H40.646ZM46.4934 9.16C47.1001 9.16 47.6414 9.286 48.1174 9.538C48.6027 9.79 48.9807 10.1633 49.2514 10.658C49.5221 11.1527 49.6574 11.75 49.6574 12.45V17H48.0754V12.688C48.0754 11.9973 47.9027 11.47 47.5574 11.106C47.2121 10.7327 46.7407 10.546 46.1434 10.546C45.5461 10.546 45.0701 10.7327 44.7154 11.106C44.3701 11.47 44.1974 11.9973 44.1974 12.688V17H42.6014V9.286H44.1974V10.168C44.4587 9.85067 44.7901 9.60333 45.1914 9.426C45.6021 9.24867 46.0361 9.16 46.4934 9.16ZM51.0212 13.136C51.0212 12.3427 51.1799 11.6473 51.4972 11.05C51.8239 10.4433 52.2719 9.97667 52.8412 9.65C53.4105 9.32333 54.0639 9.16 54.8012 9.16C55.7345 9.16 56.5045 9.384 57.1112 9.832C57.7272 10.2707 58.1425 10.9007 58.3572 11.722H56.6352C56.4952 11.3393 56.2712 11.0407 55.9632 10.826C55.6552 10.6113 55.2679 10.504 54.8012 10.504C54.1479 10.504 53.6252 10.7373 53.2332 11.204C52.8505 11.6613 52.6592 12.3053 52.6592 13.136C52.6592 13.9667 52.8505 14.6153 53.2332 15.082C53.6252 15.5487 54.1479 15.782 54.8012 15.782C55.7252 15.782 56.3365 15.376 56.6352 14.564H58.3572C58.1332 15.348 57.7132 15.9733 57.0972 16.44C56.4812 16.8973 55.7159 17.126 54.8012 17.126C54.0639 17.126 53.4105 16.9627 52.8412 16.636C52.2719 16.3 51.8239 15.8333 51.4972 15.236C51.1799 14.6293 51.0212 13.9293 51.0212 13.136ZM63.1537 17.126C62.4257 17.126 61.7677 16.9627 61.1797 16.636C60.5917 16.3 60.1297 15.8333 59.7937 15.236C59.4577 14.6293 59.2897 13.9293 59.2897 13.136C59.2897 12.352 59.4624 11.6567 59.8077 11.05C60.1531 10.4433 60.6244 9.97667 61.2217 9.65C61.8191 9.32333 62.4864 9.16 63.2237 9.16C63.9611 9.16 64.6284 9.32333 65.2257 9.65C65.8231 9.97667 66.2944 10.4433 66.6397 11.05C66.9851 11.6567 67.1577 12.352 67.1577 13.136C67.1577 13.92 66.9804 14.6153 66.6257 15.222C66.2711 15.8287 65.7857 16.3 65.1697 16.636C64.5631 16.9627 63.8911 17.126 63.1537 17.126ZM63.1537 15.74C63.5644 15.74 63.9471 15.642 64.3017 15.446C64.6657 15.25 64.9597 14.956 65.1837 14.564C65.4077 14.172 65.5197 13.696 65.5197 13.136C65.5197 12.576 65.4124 12.1047 65.1977 11.722C64.9831 11.33 64.6984 11.036 64.3437 10.84C63.9891 10.644 63.6064 10.546 63.1957 10.546C62.7851 10.546 62.4024 10.644 62.0477 10.84C61.7024 11.036 61.4271 11.33 61.2217 11.722C61.0164 12.1047 60.9137 12.576 60.9137 13.136C60.9137 13.9667 61.1237 14.6107 61.5437 15.068C61.9731 15.516 62.5097 15.74 63.1537 15.74ZM77.9335 9.16C78.5401 9.16 79.0815 9.286 79.5575 9.538C80.0428 9.79 80.4208 10.1633 80.6915 10.658C80.9715 11.1527 81.1115 11.75 81.1115 12.45V17H79.5295V12.688C79.5295 11.9973 79.3568 11.47 79.0115 11.106C78.6661 10.7327 78.1948 10.546 77.5975 10.546C77.0001 10.546 76.5241 10.7327 76.1695 11.106C75.8241 11.47 75.6515 11.9973 75.6515 12.688V17H74.0695V12.688C74.0695 11.9973 73.8968 11.47 73.5515 11.106C73.2061 10.7327 72.7348 10.546 72.1375 10.546C71.5401 10.546 71.0641 10.7327 70.7095 11.106C70.3641 11.47 70.1915 11.9973 70.1915 12.688V17H68.5955V9.286H70.1915V10.168C70.4528 9.85067 70.7841 9.60333 71.1855 9.426C71.5868 9.24867 72.0161 9.16 72.4735 9.16C73.0895 9.16 73.6401 9.29067 74.1255 9.552C74.6108 9.81333 74.9841 10.1913 75.2455 10.686C75.4788 10.2193 75.8428 9.85067 76.3375 9.58C76.8321 9.3 77.3641 9.16 77.9335 9.16ZM90.0723 12.954C90.0723 13.2433 90.0537 13.5047 90.0163 13.738H84.1223C84.169 14.354 84.3977 14.8487 84.8083 15.222C85.219 15.5953 85.723 15.782 86.3203 15.782C87.179 15.782 87.7857 15.4227 88.1403 14.704H89.8623C89.629 15.4133 89.2043 15.9967 88.5883 16.454C87.9817 16.902 87.2257 17.126 86.3203 17.126C85.583 17.126 84.9203 16.9627 84.3323 16.636C83.7537 16.3 83.2963 15.8333 82.9603 15.236C82.6337 14.6293 82.4703 13.9293 82.4703 13.136C82.4703 12.3427 82.629 11.6473 82.9463 11.05C83.273 10.4433 83.7257 9.97667 84.3043 9.65C84.8923 9.32333 85.5643 9.16 86.3203 9.16C87.0483 9.16 87.697 9.31867 88.2663 9.636C88.8357 9.95333 89.279 10.4013 89.5963 10.98C89.9137 11.5493 90.0723 12.2073 90.0723 12.954ZM88.4063 12.45C88.397 11.862 88.187 11.3907 87.7763 11.036C87.3657 10.6813 86.857 10.504 86.2503 10.504C85.6997 10.504 85.2283 10.6813 84.8363 11.036C84.4443 11.3813 84.211 11.8527 84.1363 12.45H88.4063Z" fill="#9197B3"/>
<path d="M221 16L225 12L221 8" stroke="#9197B3" stroke-width="2" stroke-linecap="round" stroke-linejoin="round"/>
</svg>
