<svg width="231" height="24" viewBox="0 0 231 24" fill="none" xmlns="http://www.w3.org/2000/svg">
<path d="M12 22.7503C11.37 22.7503 10.78 22.5104 10.34 22.0604L8.82001 20.5404C8.70001 20.4204 8.38 20.2904 8.22 20.2904H6.06C4.76 20.2904 3.70999 19.2403 3.70999 17.9403V15.7804C3.70999 15.6204 3.57999 15.3004 3.45999 15.1804L1.94 13.6604C1.5 13.2204 1.25 12.6303 1.25 12.0003C1.25 11.3703 1.49 10.7803 1.94 10.3403L3.45999 8.82028C3.57999 8.70028 3.70999 8.3803 3.70999 8.2203V6.06039C3.70999 4.76039 4.76 3.71029 6.06 3.71029H8.22C8.38 3.71029 8.70001 3.58029 8.82001 3.46029L10.34 1.94027C11.22 1.06027 12.78 1.06027 13.66 1.94027L15.18 3.46029C15.3 3.58029 15.62 3.71029 15.78 3.71029H17.94C19.24 3.71029 20.29 4.76039 20.29 6.06039V8.2203C20.29 8.3803 20.42 8.70028 20.54 8.82028L22.06 10.3403C22.5 10.7803 22.75 11.3703 22.75 12.0003C22.75 12.6303 22.51 13.2204 22.06 13.6604L20.54 15.1804C20.42 15.3004 20.29 15.6204 20.29 15.7804V17.9403C20.29 19.2403 19.24 20.2904 17.94 20.2904H15.78C15.62 20.2904 15.3 20.4204 15.18 20.5404L13.66 22.0604C13.22 22.5104 12.63 22.7503 12 22.7503ZM4.51999 14.1203C4.91999 14.5203 5.20999 15.2204 5.20999 15.7804V17.9403C5.20999 18.4103 5.59 18.7904 6.06 18.7904H8.22C8.78 18.7904 9.48001 19.0803 9.88 19.4803L11.4 21.0003C11.72 21.3203 12.28 21.3203 12.6 21.0003L14.12 19.4803C14.52 19.0803 15.22 18.7904 15.78 18.7904H17.94C18.41 18.7904 18.79 18.4103 18.79 17.9403V15.7804C18.79 15.2204 19.08 14.5203 19.48 14.1203L21 12.6003C21.16 12.4403 21.25 12.2303 21.25 12.0003C21.25 11.7703 21.16 11.5604 21 11.4004L19.48 9.88034C19.08 9.48034 18.79 8.7803 18.79 8.2203V6.06039C18.79 5.59039 18.41 5.21029 17.94 5.21029H15.78C15.22 5.21029 14.52 4.92035 14.12 4.52035L12.6 3.00033C12.28 2.68033 11.72 2.68033 11.4 3.00033L9.88 4.52035C9.48001 4.92035 8.78 5.21029 8.22 5.21029H6.06C5.59 5.21029 5.20999 5.59039 5.20999 6.06039V8.2203C5.20999 8.7803 4.91999 9.48034 4.51999 9.88034L3 11.4004C2.84 11.5604 2.75 11.7703 2.75 12.0003C2.75 12.2303 2.84 12.4403 3 12.6003L4.51999 14.1203Z" fill="#9197B3"/>
<path d="M15.0002 16C14.4402 16 13.9902 15.55 13.9902 15C13.9902 14.45 14.4402 14 14.9902 14C15.5402 14 15.9902 14.45 15.9902 15C15.9902 15.55 15.5502 16 15.0002 16Z" fill="#9197B3"/>
<path d="M9.01001 10C8.45001 10 8 9.55 8 9C8 8.45 8.45 8 9 8C9.55 8 10 8.45 10 9C10 9.55 9.56001 10 9.01001 10Z" fill="#9197B3"/>
<path d="M8.99945 15.7495C8.80945 15.7495 8.61945 15.6795 8.46945 15.5295C8.17945 15.2395 8.17945 14.7595 8.46945 14.4695L14.4695 8.46945C14.7595 8.17945 15.2395 8.17945 15.5295 8.46945C15.8195 8.75945 15.8195 9.23951 15.5295 9.52951L9.52945 15.5295C9.37945 15.6795 9.18945 15.7495 8.99945 15.7495Z" fill="#9197B3"/>
<path d="M45.854 10.168C45.854 10.6627 45.7373 11.1293 45.504 11.568C45.2707 12.0067 44.8973 12.366 44.384 12.646C43.8707 12.9167 43.2127 13.052 42.41 13.052H40.646V17H39.05V7.27H42.41C43.1567 7.27 43.7867 7.40067 44.3 7.662C44.8227 7.914 45.21 8.25933 45.462 8.698C45.7233 9.13667 45.854 9.62667 45.854 10.168ZM42.41 11.75C43.0167 11.75 43.4693 11.6147 43.768 11.344C44.0667 11.064 44.216 10.672 44.216 10.168C44.216 9.104 43.614 8.572 42.41 8.572H40.646V11.75H42.41ZM48.8322 10.406C49.0655 10.014 49.3735 9.71067 49.7562 9.496C50.1482 9.272 50.6102 9.16 51.1422 9.16V10.812H50.7362C50.1108 10.812 49.6348 10.9707 49.3082 11.288C48.9908 11.6053 48.8322 12.156 48.8322 12.94V17H47.2362V9.286H48.8322V10.406ZM55.8152 17.126C55.0872 17.126 54.4292 16.9627 53.8412 16.636C53.2532 16.3 52.7912 15.8333 52.4552 15.236C52.1192 14.6293 51.9512 13.9293 51.9512 13.136C51.9512 12.352 52.1239 11.6567 52.4692 11.05C52.8146 10.4433 53.2859 9.97667 53.8832 9.65C54.4806 9.32333 55.1479 9.16 55.8852 9.16C56.6226 9.16 57.2899 9.32333 57.8872 9.65C58.4846 9.97667 58.9559 10.4433 59.3012 11.05C59.6466 11.6567 59.8192 12.352 59.8192 13.136C59.8192 13.92 59.6419 14.6153 59.2872 15.222C58.9326 15.8287 58.4472 16.3 57.8312 16.636C57.2246 16.9627 56.5526 17.126 55.8152 17.126ZM55.8152 15.74C56.2259 15.74 56.6086 15.642 56.9632 15.446C57.3272 15.25 57.6212 14.956 57.8452 14.564C58.0692 14.172 58.1812 13.696 58.1812 13.136C58.1812 12.576 58.0739 12.1047 57.8592 11.722C57.6446 11.33 57.3599 11.036 57.0052 10.84C56.6506 10.644 56.2679 10.546 55.8572 10.546C55.4466 10.546 55.0639 10.644 54.7092 10.84C54.3639 11.036 54.0886 11.33 53.8832 11.722C53.6779 12.1047 53.5752 12.576 53.5752 13.136C53.5752 13.9667 53.7852 14.6107 54.2052 15.068C54.6346 15.516 55.1712 15.74 55.8152 15.74ZM70.595 9.16C71.2016 9.16 71.743 9.286 72.219 9.538C72.7043 9.79 73.0823 10.1633 73.353 10.658C73.633 11.1527 73.773 11.75 73.773 12.45V17H72.191V12.688C72.191 11.9973 72.0183 11.47 71.673 11.106C71.3276 10.7327 70.8563 10.546 70.259 10.546C69.6616 10.546 69.1856 10.7327 68.831 11.106C68.4856 11.47 68.313 11.9973 68.313 12.688V17H66.731V12.688C66.731 11.9973 66.5583 11.47 66.213 11.106C65.8676 10.7327 65.3963 10.546 64.799 10.546C64.2016 10.546 63.7256 10.7327 63.371 11.106C63.0256 11.47 62.853 11.9973 62.853 12.688V17H61.257V9.286H62.853V10.168C63.1143 9.85067 63.4456 9.60333 63.847 9.426C64.2483 9.24867 64.6776 9.16 65.135 9.16C65.751 9.16 66.3016 9.29067 66.787 9.552C67.2723 9.81333 67.6456 10.1913 67.907 10.686C68.1403 10.2193 68.5043 9.85067 68.999 9.58C69.4936 9.3 70.0256 9.16 70.595 9.16ZM79.0098 17.126C78.2818 17.126 77.6238 16.9627 77.0358 16.636C76.4478 16.3 75.9858 15.8333 75.6498 15.236C75.3138 14.6293 75.1458 13.9293 75.1458 13.136C75.1458 12.352 75.3185 11.6567 75.6638 11.05C76.0092 10.4433 76.4805 9.97667 77.0778 9.65C77.6752 9.32333 78.3425 9.16 79.0798 9.16C79.8172 9.16 80.4845 9.32333 81.0818 9.65C81.6792 9.97667 82.1505 10.4433 82.4958 11.05C82.8412 11.6567 83.0138 12.352 83.0138 13.136C83.0138 13.92 82.8365 14.6153 82.4818 15.222C82.1272 15.8287 81.6418 16.3 81.0258 16.636C80.4192 16.9627 79.7472 17.126 79.0098 17.126ZM79.0098 15.74C79.4205 15.74 79.8032 15.642 80.1578 15.446C80.5218 15.25 80.8158 14.956 81.0398 14.564C81.2638 14.172 81.3758 13.696 81.3758 13.136C81.3758 12.576 81.2685 12.1047 81.0538 11.722C80.8392 11.33 80.5545 11.036 80.1998 10.84C79.8452 10.644 79.4625 10.546 79.0518 10.546C78.6412 10.546 78.2585 10.644 77.9038 10.84C77.5585 11.036 77.2832 11.33 77.0778 11.722C76.8725 12.1047 76.7698 12.576 76.7698 13.136C76.7698 13.9667 76.9798 14.6107 77.3998 15.068C77.8292 15.516 78.3658 15.74 79.0098 15.74ZM86.3136 10.588V14.858C86.3136 15.1473 86.3789 15.3573 86.5096 15.488C86.6496 15.6093 86.8829 15.67 87.2096 15.67H88.1896V17H86.9296C86.2109 17 85.6602 16.832 85.2776 16.496C84.8949 16.16 84.7036 15.614 84.7036 14.858V10.588H83.7936V9.286H84.7036V7.368H86.3136V9.286H88.1896V10.588H86.3136ZM96.5905 12.954C96.5905 13.2433 96.5719 13.5047 96.5345 13.738H90.6405C90.6872 14.354 90.9159 14.8487 91.3265 15.222C91.7372 15.5953 92.2412 15.782 92.8385 15.782C93.6972 15.782 94.3039 15.4227 94.6585 14.704H96.3805C96.1472 15.4133 95.7225 15.9967 95.1065 16.454C94.4999 16.902 93.7439 17.126 92.8385 17.126C92.1012 17.126 91.4385 16.9627 90.8505 16.636C90.2719 16.3 89.8145 15.8333 89.4785 15.236C89.1519 14.6293 88.9885 13.9293 88.9885 13.136C88.9885 12.3427 89.1472 11.6473 89.4645 11.05C89.7912 10.4433 90.2439 9.97667 90.8225 9.65C91.4105 9.32333 92.0825 9.16 92.8385 9.16C93.5665 9.16 94.2152 9.31867 94.7845 9.636C95.3539 9.95333 95.7972 10.4013 96.1145 10.98C96.4319 11.5493 96.5905 12.2073 96.5905 12.954ZM94.9245 12.45C94.9152 11.862 94.7052 11.3907 94.2945 11.036C93.8839 10.6813 93.3752 10.504 92.7685 10.504C92.2179 10.504 91.7465 10.6813 91.3545 11.036C90.9625 11.3813 90.7292 11.8527 90.6545 12.45H94.9245Z" fill="#9197B3"/>
<path d="M221 16L225 12L221 8" stroke="#9197B3" stroke-width="2" stroke-linecap="round" stroke-linejoin="round"/>
</svg>
