<svg width="231" height="24" viewBox="0 0 231 24" fill="none" xmlns="http://www.w3.org/2000/svg">
<path d="M8 22.3199C7.72 22.3199 7.42998 22.2499 7.16998 22.1099C6.59998 21.8099 6.25 21.2099 6.25 20.5699V19.15C3.23 18.84 1.25 16.6199 1.25 13.4399V7.43994C1.25 3.99994 3.56 1.68994 7 1.68994H17C20.44 1.68994 22.75 3.99994 22.75 7.43994V13.4399C22.75 16.8799 20.44 19.1899 17 19.1899H13.23L8.96997 22.03C8.67997 22.22 8.34 22.3199 8 22.3199ZM7 3.17993C4.42 3.17993 2.75 4.84993 2.75 7.42993V13.43C2.75 16.01 4.42 17.68 7 17.68C7.41 17.68 7.75 18.02 7.75 18.43V20.56C7.75 20.69 7.83 20.75 7.88 20.78C7.93001 20.81 8.03001 20.84 8.14001 20.77L12.59 17.81C12.71 17.73 12.86 17.68 13.01 17.68H17.01C19.59 17.68 21.26 16.01 21.26 13.43V7.42993C21.26 4.84993 19.59 3.17993 17.01 3.17993H7Z" fill="#9197B3"/>
<path d="M11.9998 12.1099C11.5898 12.1099 11.2498 11.7699 11.2498 11.3599V11.1499C11.2498 9.9899 12.0998 9.41989 12.4198 9.19989C12.7898 8.94989 12.9098 8.7799 12.9098 8.5199C12.9098 8.0199 12.4998 7.60986 11.9998 7.60986C11.4998 7.60986 11.0898 8.0199 11.0898 8.5199C11.0898 8.9299 10.7498 9.2699 10.3398 9.2699C9.92984 9.2699 9.58984 8.9299 9.58984 8.5199C9.58984 7.1899 10.6698 6.10986 11.9998 6.10986C13.3298 6.10986 14.4098 7.1899 14.4098 8.5199C14.4098 9.6599 13.5698 10.2299 13.2598 10.4399C12.8698 10.6999 12.7498 10.8699 12.7498 11.1499V11.3599C12.7498 11.7799 12.4098 12.1099 11.9998 12.1099Z" fill="#9197B3"/>
<path d="M12 14.6001C11.58 14.6001 11.25 14.2601 11.25 13.8501C11.25 13.4401 11.59 13.1001 12 13.1001C12.41 13.1001 12.75 13.4401 12.75 13.8501C12.75 14.2601 12.42 14.6001 12 14.6001Z" fill="#9197B3"/>
<path d="M46.82 7.27V17H45.224V12.744H40.646V17H39.05V7.27H40.646V11.442H45.224V7.27H46.82ZM55.8511 12.954C55.8511 13.2433 55.8324 13.5047 55.7951 13.738H49.9011C49.9478 14.354 50.1764 14.8487 50.5871 15.222C50.9978 15.5953 51.5018 15.782 52.0991 15.782C52.9578 15.782 53.5644 15.4227 53.9191 14.704H55.6411C55.4078 15.4133 54.9831 15.9967 54.3671 16.454C53.7604 16.902 53.0044 17.126 52.0991 17.126C51.3618 17.126 50.6991 16.9627 50.1111 16.636C49.5324 16.3 49.0751 15.8333 48.7391 15.236C48.4124 14.6293 48.2491 13.9293 48.2491 13.136C48.2491 12.3427 48.4078 11.6473 48.7251 11.05C49.0518 10.4433 49.5044 9.97667 50.0831 9.65C50.6711 9.32333 51.3431 9.16 52.0991 9.16C52.8271 9.16 53.4758 9.31867 54.0451 9.636C54.6144 9.95333 55.0578 10.4013 55.3751 10.98C55.6924 11.5493 55.8511 12.2073 55.8511 12.954ZM54.1851 12.45C54.1758 11.862 53.9658 11.3907 53.5551 11.036C53.1444 10.6813 52.6358 10.504 52.0291 10.504C51.4784 10.504 51.0071 10.6813 50.6151 11.036C50.2231 11.3813 49.9898 11.8527 49.9151 12.45H54.1851ZM58.8777 6.64V17H57.2817V6.64H58.8777ZM62.4291 10.42C62.6998 10.0653 63.0685 9.76667 63.5351 9.524C64.0018 9.28133 64.5291 9.16 65.1171 9.16C65.7891 9.16 66.4005 9.328 66.9511 9.664C67.5111 9.99067 67.9498 10.4527 68.2671 11.05C68.5845 11.6473 68.7431 12.3333 68.7431 13.108C68.7431 13.8827 68.5845 14.578 68.2671 15.194C67.9498 15.8007 67.5111 16.2767 66.9511 16.622C66.4005 16.958 65.7891 17.126 65.1171 17.126C64.5291 17.126 64.0065 17.0093 63.5491 16.776C63.0918 16.5333 62.7185 16.2347 62.4291 15.88V20.668H60.8331V9.286H62.4291V10.42ZM67.1191 13.108C67.1191 12.576 67.0071 12.1187 66.7831 11.736C66.5685 11.344 66.2791 11.05 65.9151 10.854C65.5605 10.6487 65.1778 10.546 64.7671 10.546C64.3658 10.546 63.9831 10.6487 63.6191 10.854C63.2645 11.0593 62.9751 11.358 62.7511 11.75C62.5365 12.142 62.4291 12.604 62.4291 13.136C62.4291 13.668 62.5365 14.1347 62.7511 14.536C62.9751 14.928 63.2645 15.2267 63.6191 15.432C63.9831 15.6373 64.3658 15.74 64.7671 15.74C65.1778 15.74 65.5605 15.6373 65.9151 15.432C66.2791 15.2173 66.5685 14.9093 66.7831 14.508C67.0071 14.1067 67.1191 13.64 67.1191 13.108Z" fill="#9197B3"/>
<path d="M221 16L225 12L221 8" stroke="#9197B3" stroke-width="2" stroke-linecap="round" stroke-linejoin="round"/>
</svg>
